Coordinates
version=1
nRows=21
nColumns=33
inDegrees=yes

Units are S.I. units (second, meters, Newtons, ...)
Angles are in degrees.

endheader
time	ground_thorax_rot_x	ground_thorax_rot_y	ground_thorax_rot_z	ground_thorax_tx	ground_thorax_ty	ground_thorax_tz	clav_prot_r	clav_elev_r	scapula_abduction_r	scapula_elevation_r	scapula_upward_rot_r	scapula_winging_r	shoulder_elv_r	plane_of_elev_r	axial_rot_r	elbow_flexion_r	pro_sup_r	wrist_flex_r	wrist_dev_r	clav_prot_l	clav_elev_l	scapula_abduction_l	scapula_elevation_l	scapula_upward_rot_l	scapula_winging_l	shoulder_elv_l	plane_of_elev_l	axial_rot_l	elbow_flexion_l	pro_sup_l	wrist_flex_l	wrist_dev_l	
0.5700	1.483871	4.173567	13.086736	-0.121666	1.035744	0.031695	5.108522	11.221574	20.890576	6.513445	24.422834	-11.521746	-1.116162	-71.793073	56.484338	43.384267	-40.896033	70.000000	-25.000000	11.083361	-3.097919	-16.127115	-22.082731	-42.290700	-0.708930	59.014088	-37.899667	-1.619957	58.097319	20.839416	0.222289	-25.000000	
0.5800	1.480349	4.192607	13.113224	-0.121806	1.035707	0.031645	5.129170	11.209574	20.862646	6.529591	24.340151	-11.504050	-1.194525	-71.727047	56.545613	43.421845	-40.839378	70.000000	-25.000000	11.128616	-3.121743	-16.212247	-22.062413	-42.302346	-0.669510	59.046573	-37.944795	-1.848036	58.228912	20.950461	0.208290	-25.000000	
0.5900	1.484674	4.190541	13.134593	-0.121898	1.035704	0.031586	5.140156	11.185585	20.832593	6.530936	24.272701	-11.485663	-1.258969	-71.666301	56.592088	43.428702	-40.787599	70.000000	-25.000000	11.151874	-3.151530	-16.259090	-22.037404	-42.313541	-0.645989	59.056193	-37.957431	-1.999843	58.303391	21.036127	0.199320	-25.000000	
0.6000	1.481159	4.198746	13.174240	-0.122019	1.035662	0.031526	5.154020	11.154940	20.800455	6.530658	24.192952	-11.465993	-1.326987	-71.580114	56.646322	43.392454	-40.708056	70.000000	-25.000000	11.183821	-3.187752	-16.318080	-22.001739	-42.315931	-0.615381	59.084083	-37.967988	-2.177011	58.370347	21.157376	0.187276	-25.000000	
0.6100	1.474122	4.204974	13.224441	-0.122135	1.035598	0.031461	5.165183	11.115041	20.766549	6.522635	24.113351	-11.445502	-1.391591	-71.475071	56.701071	43.310358	-40.609842	70.000000	-25.000000	11.212702	-3.231054	-16.369352	-21.955988	-42.310666	-0.586441	59.115766	-37.961131	-2.337566	58.407765	21.295803	0.174754	-25.000000	
0.6200	1.461381	4.208809	13.283877	-0.122246	1.035507	0.031387	5.171888	11.066967	20.729933	6.506730	24.037195	-11.424140	-1.454719	-71.343328	56.760536	43.176223	-40.488648	70.000000	-25.000000	11.238594	-3.281238	-16.412774	-21.899852	-42.296763	-0.559003	59.151689	-37.934516	-2.478670	58.416993	21.460357	0.160393	-25.000000	
0.6300	1.443846	4.205380	13.346299	-0.122341	1.035376	0.031305	5.171042	11.016925	20.693793	6.484043	23.977318	-11.404300	-1.513406	-71.190947	56.823462	43.009681	-40.357308	70.000000	-25.000000	11.259439	-3.334635	-16.444761	-21.837107	-42.274478	-0.535159	59.185860	-37.884340	-2.587183	58.407329	21.640702	0.144201	-25.000000	
0.6400	1.414551	4.197292	13.405608	-0.122420	1.035235	0.031215	5.158186	10.965279	20.647196	6.455707	23.931705	-11.382126	-1.582156	-70.982376	56.912856	42.761985	-40.183609	70.000000	-25.000000	11.277649	-3.391755	-16.469047	-21.765887	-42.241153	-0.512453	59.225498	-37.808391	-2.663261	58.374878	21.889425	0.119804	-25.000000	
0.6500	1.378806	4.185261	13.456986	-0.122490	1.035065	0.031117	5.135734	10.918213	20.599200	6.424438	23.907793	-11.361771	-1.651434	-70.737529	57.020349	42.468071	-39.991315	70.000000	-25.000000	11.297464	-3.451084	-16.492981	-21.687395	-42.196636	-0.487762	59.267290	-37.704935	-2.718673	58.334003	22.187780	0.088879	-25.000000	
0.6600	1.338356	4.170098	13.502117	-0.122552	1.034876	0.031012	5.106550	10.873718	20.552789	6.389572	23.902184	-11.343707	-1.718765	-70.465047	57.141719	42.139339	-39.787654	70.000000	-25.000000	11.319169	-3.513973	-16.517668	-21.601109	-42.142726	-0.460571	59.309981	-37.576027	-2.757818	58.283131	22.522963	0.052951	-25.000000	
0.6700	1.303796	4.150754	13.539451	-0.122619	1.034669	0.030903	5.081183	10.826072	20.528534	6.346545	23.912926	-11.334002	-1.763897	-70.206849	57.252125	41.831778	-39.615481	70.000000	-25.000000	11.344588	-3.585522	-16.547286	-21.503319	-42.082164	-0.428997	59.345689	-37.418357	-2.791684	58.214783	22.832395	0.020290	-25.000000	
0.6800	1.271060	4.131454	13.577123	-0.122688	1.034458	0.030792	5.063270	10.771162	20.522705	6.296299	23.926255	-11.329925	-1.793565	-69.958826	57.356118	41.537380	-39.463451	70.000000	-25.000000	11.374838	-3.665823	-16.584683	-21.395175	-42.017877	-0.392166	59.380819	-37.244445	-2.830071	58.130095	23.117419	-0.010161	-25.000000	
0.6900	1.249348	4.110586	13.610496	-0.122768	1.034243	0.030674	5.060521	10.704840	20.551450	6.235140	23.941934	-11.336422	-1.790375	-69.752526	57.438018	41.294136	-39.363787	70.000000	-25.000000	11.410977	-3.757646	-16.633168	-21.276175	-41.954608	-0.349358	59.406408	-37.050246	-2.879052	58.028862	23.328497	-0.034084	-25.000000	
0.7000	1.232586	4.087165	13.648569	-0.122840	1.034009	0.030553	5.068457	10.633335	20.602963	6.169006	23.958346	-11.349820	-1.764389	-69.584764	57.504466	41.105948	-39.304975	70.000000	-25.000000	11.448405	-3.852055	-16.685871	-21.157745	-41.898132	-0.305657	59.424243	-36.853820	-2.927911	57.931393	23.466775	-0.055566	-25.000000	
0.7100	1.220300	4.063276	13.681679	-0.122914	1.033782	0.030426	5.088342	10.552801	20.677828	6.095816	23.971824	-11.369672	-1.716771	-69.439926	57.573326	40.946771	-39.273461	70.000000	-25.000000	11.491369	-3.952159	-16.751214	-21.038079	-41.851442	-0.257780	59.436649	-36.649377	-2.979141	57.830219	23.551135	-0.081961	-25.000000	
0.7200	1.201846	4.039724	13.717712	-0.122965	1.033548	0.030304	5.108127	10.475048	20.748848	6.026034	23.982175	-11.387977	-1.664739	-69.294256	57.660835	40.789973	-39.232127	70.000000	-25.000000	11.535901	-4.046533	-16.822738	-20.929724	-41.817594	-0.210129	59.452473	-36.456704	-3.021645	57.745231	23.628224	-0.122637	-25.000000	
0.7300	1.180925	4.018682	13.744666	-0.123003	1.033325	0.030180	5.128838	10.397024	20.818239	5.957334	23.988590	-11.405261	-1.596876	-69.143624	57.775532	40.627075	-39.176797	70.000000	-25.000000	11.588057	-4.140008	-16.912806	-20.830050	-41.801666	-0.157693	59.472762	-36.267025	-3.065279	57.669711	23.709541	-0.186536	-25.000000	
0.7400	1.154857	3.999155	13.774439	-0.123004	1.033073	0.030067	5.142402	10.329325	20.868863	5.898319	23.992794	-11.416854	-1.504688	-69.008400	57.899132	40.502104	-39.108599	70.000000	-25.000000	11.642348	-4.222756	-17.013036	-20.751235	-41.809196	-0.105919	59.500195	-36.100924	-3.102039	57.622681	23.783777	-0.275348	-25.000000	
0.7500	1.125124	3.983846	13.798033	-0.122976	1.032816	0.029963	5.148813	10.265794	20.899159	5.845128	23.990715	-11.421566	-1.371237	-68.884949	58.034613	40.416112	-39.019629	69.999999	-25.000000	11.703226	-4.300357	-17.132766	-20.689468	-41.844162	-0.050612	59.538173	-35.949530	-3.133772	57.591047	23.858872	-0.396561	-25.000000	
0.7600	1.089945	3.973376	13.823634	-0.122904	1.032531	0.029880	5.136756	10.208355	20.882876	5.801358	23.977330	-11.410769	-1.152752	-68.791035	58.171714	40.419033	-38.893293	69.999998	-25.000000	11.770944	-4.369868	-17.277677	-20.655602	-41.924551	0.007957	59.593377	-35.818577	-3.149840	57.589569	23.930783	-0.571373	-25.000000	
0.7700	1.051691	3.974524	13.842659	-0.122804	1.032245	0.029813	5.105602	10.146962	20.814851	5.761356	23.944109	-11.381494	-0.817564	-68.719820	58.324087	40.512850	-38.710567	69.999996	-25.000000	11.852924	-4.440007	-17.464137	-20.645372	-42.060341	0.076392	59.670025	-35.689307	-3.149971	57.612448	24.009368	-0.818684	-25.000000	
